Coordinates
version=1
nRows=11
nColumns=24
inDegrees=yes

Units are S.I. units (second, meters, Newtons, ...)
If the header above contains a line with 'inDegrees', this indicates whether rotational values are in degrees (yes) or radians (no).

endheader
time	pelvis_tilt	pelvis_list	pelvis_rotation	pelvis_tx	pelvis_ty	pelvis_tz	hip_flexion_r	hip_adduction_r	hip_rotation_r	knee_angle_r	ankle_angle_r	subtalar_angle_r	mtp_angle_r	hip_flexion_l	hip_adduction_l	hip_rotation_l	knee_angle_l	ankle_angle_l	subtalar_angle_l	mtp_angle_l	lumbar_extension	lumbar_bending	lumbar_rotation
1.5	7.075997254665401	-0.7848103847682826	-3.573146396078854	0.5676853023471863	0.795427191818908	-0.06095788698513307	4.601786809246222	-6.214476161901409	-5.19789185912921	-68.48661142766592	-3.066779225446167	0.7777137006526357	0.6635982541680787	6.91366200247331	2.5673714993761494	-3.4622366662842223	-16.815478224052573	1.9766319608546763	0.32281521851068024	0.11790638377167278	-15.666700758398616	-4.558925334159494	-1.7840729619190114
1.517	6.467540186156872	-0.6698138460686945	-2.597632160867222	0.28311838981775944	1.323777070731802	0.3757677245016487	7.693877924197338	-6.693765001155137	-5.538841060522382	-69.74361393098019	-1.82595519217326	0.193062243612445	-0.12706210552835137	5.186633998263794	1.730510690815931	-2.575882006909106	-15.14821537293937	3.2799007707364995	-0.35741206345450083	-0.18637492825085672	-16.244890486393953	-4.02991439671147	-2.80766015385197
1.533	5.886885871460038	-0.6794343002562432	-2.225152068684602	0.19075530251045197	1.2192844015827358	0.5453562873778499	10.287952924124498	-5.549032416706901	-5.511810327022429	-70.09092076538383	0.8158745433663187	-0.10458238641927889	-0.15677861400616544	2.753051992095734	2.459535346617096	-1.5553004899847664	-14.552338393458509	3.7756896219366056	-0.22740600212402592	0.1852624910613207	-15.394841388842476	-2.4051178247269362	-2.4772314928542567
1.55	6.086472973730293	-1.2689404803319793	-1.3808445468556543	0.5002470324254644	0.6706216875737804	-0.5969949778215562	12.131991794045376	-5.852514159434777	-6.313253722500498	-70.56799295766534	0.9737416862455789	-0.6717818651140269	-0.48344443659674313	1.563242282202759	1.8885307430110045	-1.1380825952447977	-14.012227311338462	2.9089040439106166	-0.5449069256068924	0.4388556013301863	-15.238699958033619	-2.758877413975121	-3.274638390769371
1.567	5.6417496176628665	-1.8689911267522687	-1.1875143093050347	0.8904109289025892	1.3417466273091787	0.7405177225059572	13.591537461205535	-4.545617961564341	-6.707079343709661	-68.03807248153726	0.29235091881932607	0.3719276506635051	0.27529354418357205	0.6147829647512555	1.6604895071588603	-0.08292061078917223	-13.40241597417868	4.72200919209779	0.23756110759891827	-0.3865409997732788	-16.010206687400657	-1.837275437928358	-5.253394131854999
1.583	5.734055125291107	-0.5476757380417999	0.3151390270522564	0.6294176188597355	2.0627775855750756	-0.2648516353381706	16.28893879139272	-3.9813291292357356	-6.653490764249243	-65.55983304167098	1.7118653560473667	0.12264178087078273	-0.6528928559570054	0.02663828205441665	1.9329108827396673	-0.10690493715120938	-11.478886468924335	4.383976961412546	-0.22835395763879598	0.044067679918965465	-15.184240756390997	-1.7274286523534832	-5.548246328836585
1.6	6.289262824124315	-2.1581473832371287	0.4399580836274248	0.6834325348183743	1.424405426112441	0.531256291807805	16.416316584335707	-4.3051193342713185	-7.298113123411005	-62.17898228730116	2.0000927085202247	-0.31810300917533246	-0.6231073725506506	-2.8516361092237097	1.4096038610659194	0.08754327581489826	-10.924059947437376	5.366707569422084	-0.7721410497799779	0.48233238767216796	-15.473571555286695	-0.6992485971092802	-5.275292682554353
1.617	5.646082316679402	-0.9682654641949601	-0.2884366377931272	1.1219115533773578	0.355025931855686	1.0760426401664014	18.50138831974981	-4.005709386812732	-6.971589270455063	-60.01253675212777	1.7738616100862754	0.2275190279406084	0.3158100263093442	-3.7274587451545145	2.179311034455478	1.035982612445151	-8.794313140296069	5.078048918986024	-0.5036503761128612	0.10999426884209089	-16.14336246293435	-0.6170328035286536	-6.097164355212139
1.633	5.511046366945736	-1.4707167012296642	0.015452246467166142	0.4473337002354771	1.3699552110016737	-0.6372486350953015	19.42518087353833	-3.526112481692303	-7.6453750107537815	-55.34999803137887	3.114995947608815	0.12885815164228442	-0.13041267650774108	-5.384455704520545	1.3795184764251178	1.0896836190971522	-8.484226766972812	6.188034977332999	0.4077942447585667	0.6559107541456684	-15.420842361583466	-1.389869896967045	-6.726918183074223
1.65	5.415620234805111	-1.605785553249113	0.15230311880051875	0.6752263436139586	0.6478579265207152	-0.23571960846235598	20.45897240401807	-3.9803136634890595	-8.137665956259676	-51.08784814573108	2.7972359824786355	-0.9735974017639832	-0.8030037967778063	-6.224211983220339	1.1806866885166432	0.6058421750492553	-6.616711610904509	6.523135252814958	0.27146196140447076	0.6527320200996712	-15.178338370368762	-0.3829553771592956	-6.28293626386322
1.667	5.919240055165705	-1.4938447570846705	-0.6002259690526073	1.510737668965831	0.7636682226513285	-0.13882564628219032	21.305264966180207	-3.62110442379759	-8.968174638274357	-45.35002745550083	3.155679440387303	0.5175153453439667	-0.5080687350043054	-8.624263008546535	2.193153391903894	0.8034027534152096	-7.083282971393798	6.931954711928222	-0.2685471619715528	-0.3146027537513357	-15.838270189867767	-1.5587982378367295	-6.063917719946573
